<svg xmlns="http://www.w3.org/2000/svg" viewBox="0 0 37 30" width="37" height="30">
	<style>
		tspan { white-space:pre }
		.shp0 { opacity: 0.502;fill: #ffffff } 
	</style>
	<g id="Header">
		<g id="Contents">
			<g id="Sub heading">
				<path id="Shape 5" class="shp0" d="M35.52 5.92C35.49 5.89 35.46 5.86 35.44 5.84C35.52 5.71 35.51 5.62 35.55 5.49C35.45 5.43 35.52 5.45 35.43 5.45C35.38 5.42 35.33 5.4 35.28 5.37C35.16 5.49 35 5.67 34.88 5.68C34.87 5.69 34.86 5.7 34.84 5.72C34.78 5.68 34.71 5.64 34.64 5.6C34.63 5.61 34.62 5.62 34.6 5.63C34.58 5.61 34.55 5.58 34.52 5.56C34.49 5.57 34.45 5.58 34.41 5.59C34.38 5.57 34.35 5.54 34.33 5.52C34.31 5.53 34.3 5.54 34.29 5.55C34.26 5.53 34.23 5.5 34.21 5.48C34.17 5.49 34.13 5.5 34.09 5.51C34.06 5.49 34.04 5.46 34.01 5.43C33.97 5.45 33.93 5.46 33.89 5.47C33.86 5.45 33.84 5.42 33.81 5.39C33.77 5.41 33.73 5.42 33.69 5.43C33.67 5.4 33.64 5.38 33.61 5.35C33.57 5.37 33.53 5.38 33.49 5.39C33.47 5.36 33.44 5.34 33.41 5.31C33.37 5.32 33.33 5.34 33.3 5.35C33.27 5.32 33.24 5.3 33.22 5.27C33.2 5.28 33.19 5.3 33.18 5.31C33.15 5.28 33.12 5.26 33.1 5.23L32.94 5.23C32.91 5.2 32.88 5.18 32.86 5.15C32.82 5.16 32.78 5.18 32.74 5.19C32.63 5.13 32.53 5.08 32.42 5.03C32.41 5.04 32.4 5.05 32.38 5.07C32.36 5.04 32.33 5.02 32.3 4.99C32.26 5 32.22 5.01 32.18 5.03C31.88 4.91 31.57 4.79 31.27 4.67C31.26 4.68 31.24 4.69 31.23 4.71C31.2 4.68 31.18 4.65 31.15 4.63C31.14 4.64 31.12 4.65 31.11 4.67C31.08 4.64 31.06 4.61 31.03 4.59C31.02 4.6 31 4.61 30.99 4.63C30.97 4.6 30.94 4.57 30.91 4.55C30.9 4.56 30.89 4.57 30.87 4.59C30.85 4.56 30.82 4.53 30.79 4.51C30.78 4.52 30.77 4.53 30.75 4.55C30.73 4.52 30.7 4.49 30.67 4.47C30.66 4.48 30.65 4.49 30.63 4.51C30.57 4.47 30.5 4.43 30.44 4.39C30.4 4.4 30.36 4.41 30.32 4.42C30.28 4.39 30.24 4.35 30.2 4.31C30.18 4.32 30.17 4.33 30.16 4.35C30.13 4.32 30.1 4.29 30.08 4.27C30.06 4.28 30.05 4.29 30.04 4.31C30.01 4.28 29.99 4.25 29.96 4.23C29.92 4.24 29.88 4.25 29.84 4.26C29.81 4.24 29.79 4.21 29.76 4.19C29.75 4.2 29.73 4.21 29.72 4.22C29.69 4.2 29.67 4.17 29.64 4.15C29.63 4.16 29.61 4.17 29.6 4.18C29.58 4.16 29.55 4.13 29.52 4.11C29.51 4.12 29.5 4.13 29.48 4.14C29.46 4.12 29.43 4.09 29.4 4.07C29.39 4.08 29.38 4.09 29.36 4.1C29.34 4.08 29.31 4.05 29.28 4.03C29.27 4.04 29.26 4.05 29.24 4.06C29.22 4.04 29.19 4.01 29.16 3.99L29.01 3.98C28.98 3.96 28.95 3.93 28.93 3.91C28.89 3.92 28.85 3.93 28.81 3.94C28.5 3.82 28.2 3.7 27.89 3.58C27.85 3.6 27.81 3.61 27.78 3.62C27.75 3.6 27.72 3.57 27.7 3.54L27.54 3.54C27.51 3.52 27.48 3.49 27.46 3.46C27.44 3.48 27.43 3.49 27.42 3.5C27.39 3.48 27.36 3.45 27.34 3.42C27.32 3.44 27.31 3.45 27.3 3.46C27.23 3.42 27.17 3.38 27.1 3.34C27.06 3.36 27.02 3.37 26.98 3.38C26.82 3.3 26.66 3.22 26.5 3.14C26.46 3.15 26.42 3.17 26.39 3.18C26.28 3.13 26.17 3.07 26.07 3.02C26.03 3.03 25.99 3.05 25.95 3.06C25.88 3.02 25.82 2.98 25.75 2.94C25.71 2.95 25.67 2.97 25.63 2.98C25.56 2.94 25.5 2.9 25.43 2.86C25.39 2.87 25.35 2.88 25.31 2.9C25.29 2.87 25.26 2.84 25.23 2.82C25.22 2.83 25.21 2.84 25.19 2.86C25.17 2.83 25.14 2.8 25.11 2.78C25.1 2.79 25.09 2.8 25.07 2.82C25.02 2.79 24.97 2.76 24.92 2.74C24.88 2.75 24.84 2.76 24.8 2.78C24.77 2.75 24.74 2.72 24.72 2.7C24.7 2.71 24.69 2.72 24.68 2.74C24.65 2.71 24.62 2.68 24.6 2.66C24.56 2.67 24.52 2.68 24.48 2.69C24.41 2.65 24.35 2.61 24.28 2.58C24.24 2.59 24.2 2.6 24.16 2.61C24.14 2.59 24.11 2.56 24.08 2.53C24.04 2.55 24 2.56 23.96 2.57C23.91 2.55 23.86 2.52 23.8 2.49C23.79 2.51 23.78 2.52 23.77 2.53C23.7 2.49 23.63 2.45 23.57 2.41C23.53 2.43 23.49 2.44 23.45 2.45C23.38 2.41 23.32 2.37 23.25 2.33C23.21 2.34 23.17 2.36 23.13 2.37C23.1 2.34 23.08 2.32 23.05 2.29C23.04 2.3 23.02 2.32 23.01 2.33C22.96 2.3 22.91 2.28 22.85 2.25C22.81 2.26 22.77 2.27 22.73 2.29C22.71 2.26 22.68 2.23 22.65 2.21C22.61 2.22 22.58 2.23 22.54 2.25C22.24 2.18 21.91 1.88 21.62 2.04C21.64 2.06 21.65 2.07 21.66 2.08C21.65 2.1 21.64 2.11 21.62 2.12C21.65 2.15 21.68 2.17 21.7 2.2C21.69 2.21 21.68 2.22 21.66 2.24C21.72 2.26 21.77 2.29 21.82 2.32C21.8 2.34 21.77 2.37 21.75 2.39C21.73 2.38 21.72 2.37 21.71 2.35C21.53 2.31 21.36 2.27 21.19 2.23C21.16 2.28 21.14 2.34 21.11 2.39C21.14 2.41 21.16 2.44 21.19 2.47C21.18 2.48 21.17 2.49 21.15 2.5C21.19 2.52 21.23 2.53 21.27 2.54C21.23 2.58 21.19 2.62 21.15 2.66C21.14 2.65 21.13 2.63 21.11 2.62C21.07 2.66 21.04 2.7 21 2.74C21.04 2.82 21.06 2.86 21.16 2.97C21.17 2.96 21.18 2.95 21.2 2.93C21.28 2.98 21.36 3.04 21.44 3.09C21.45 3.08 21.46 3.06 21.47 3.05C21.53 3.1 21.58 3.16 21.63 3.21C21.65 3.2 21.66 3.18 21.67 3.17C21.71 3.21 21.75 3.25 21.79 3.29C21.81 3.28 21.82 3.26 21.83 3.25C21.9 3.32 21.97 3.38 22.03 3.45C22.05 3.43 22.06 3.42 22.07 3.41C22.11 3.45 22.15 3.49 22.19 3.53C22.23 3.51 22.27 3.5 22.31 3.49C22.39 3.54 22.47 3.59 22.55 3.65C22.59 3.63 22.63 3.62 22.67 3.61C22.69 3.63 22.72 3.66 22.75 3.69C22.79 3.67 22.83 3.66 22.87 3.65C22.89 3.67 22.92 3.7 22.95 3.73C22.96 3.71 22.97 3.7 22.99 3.69C23.04 3.72 23.09 3.74 23.14 3.77C23.18 3.76 23.22 3.74 23.26 3.73C23.29 3.76 23.32 3.78 23.34 3.81C23.38 3.8 23.42 3.78 23.46 3.77C23.51 3.8 23.57 3.82 23.62 3.85C23.63 3.84 23.65 3.83 23.66 3.81C23.73 3.85 23.79 3.89 23.86 3.93C23.87 3.92 23.88 3.91 23.9 3.89C23.95 3.92 24 3.95 24.06 3.97C24.1 3.96 24.14 3.95 24.18 3.93C24.2 3.96 24.23 3.99 24.26 4.01C24.27 4 24.28 3.99 24.29 3.97C24.32 4 24.35 4.03 24.37 4.05C24.41 4.04 24.45 4.03 24.49 4.02C24.56 4.05 24.63 4.09 24.69 4.13C24.71 4.12 24.72 4.11 24.73 4.1C24.78 4.12 24.84 4.15 24.89 4.17C24.93 4.16 24.97 4.15 25.01 4.14C25.08 4.18 25.14 4.22 25.21 4.26C25.25 4.24 25.29 4.23 25.33 4.22C25.39 4.26 25.46 4.3 25.53 4.34C25.57 4.32 25.6 4.31 25.64 4.3C25.71 4.34 25.78 4.38 25.84 4.42C25.88 4.41 25.92 4.39 25.96 4.38C26.03 4.42 26.09 4.46 26.16 4.5C26.2 4.49 26.24 4.47 26.28 4.46C26.31 4.49 26.33 4.51 26.36 4.54C26.37 4.53 26.39 4.51 26.4 4.5C26.42 4.53 26.45 4.55 26.48 4.58L26.64 4.58C26.66 4.61 26.69 4.63 26.72 4.66C26.76 4.65 26.8 4.63 26.83 4.62C26.86 4.65 26.89 4.67 26.91 4.7L27.07 4.7C27.1 4.73 27.13 4.75 27.15 4.78C27.17 4.77 27.18 4.76 27.19 4.74C27.22 4.77 27.25 4.79 27.27 4.82C27.29 4.81 27.3 4.8 27.31 4.78C27.34 4.81 27.36 4.83 27.39 4.86C27.4 4.85 27.42 4.84 27.43 4.82C27.46 4.85 27.48 4.88 27.51 4.9C27.52 4.89 27.54 4.88 27.55 4.86C27.58 4.89 27.6 4.92 27.63 4.94C27.67 4.93 27.71 4.92 27.75 4.9C27.77 4.93 27.8 4.96 27.83 4.98L27.99 4.98C28.01 5.01 28.04 5.04 28.07 5.06C28.08 5.05 28.09 5.04 28.11 5.02C28.13 5.05 28.16 5.08 28.19 5.1C28.2 5.09 28.21 5.08 28.22 5.06C28.25 5.09 28.28 5.12 28.3 5.14C28.32 5.13 28.33 5.12 28.34 5.1C28.41 5.14 28.48 5.18 28.54 5.22C28.58 5.21 28.62 5.2 28.66 5.18C28.97 5.3 29.27 5.42 29.58 5.54C29.62 5.53 29.65 5.52 29.69 5.51C29.77 5.56 29.85 5.61 29.93 5.66C29.95 5.65 29.96 5.64 29.97 5.63C30.04 5.67 30.11 5.71 30.17 5.74C30.18 5.73 30.2 5.72 30.21 5.71C30.24 5.73 30.26 5.76 30.29 5.78C30.33 5.77 30.37 5.76 30.41 5.75C30.57 5.83 30.73 5.91 30.89 5.99C30.9 5.97 30.91 5.96 30.93 5.95C30.95 5.97 30.98 6 31.01 6.02C31.02 6.01 31.03 6 31.05 5.99C31.07 6.01 31.1 6.04 31.13 6.07L31.28 6.07C31.31 6.09 31.34 6.12 31.36 6.15C31.4 6.13 31.44 6.12 31.48 6.11C31.51 6.13 31.54 6.16 31.56 6.19L31.72 6.19C31.75 6.21 31.77 6.24 31.8 6.27C31.81 6.25 31.83 6.24 31.84 6.23C31.87 6.25 31.89 6.28 31.92 6.31C31.93 6.29 31.95 6.28 31.96 6.27C31.99 6.29 32.01 6.32 32.04 6.35C32.05 6.33 32.06 6.32 32.08 6.31C32.1 6.33 32.13 6.36 32.16 6.39L32.32 6.39C32.34 6.41 32.37 6.44 32.4 6.47C32.44 6.45 32.47 6.44 32.51 6.43C32.54 6.46 32.57 6.48 32.59 6.51C32.61 6.49 32.62 6.48 32.63 6.47C32.66 6.5 32.69 6.52 32.71 6.55C32.73 6.54 32.74 6.52 32.75 6.51C32.78 6.54 32.81 6.56 32.83 6.59L32.99 6.59C33.02 6.62 33.04 6.64 33.07 6.67C33.11 6.66 33.15 6.64 33.19 6.63C33.22 6.66 33.24 6.68 33.27 6.71C33.28 6.7 33.3 6.68 33.31 6.67C33.34 6.7 33.36 6.72 33.39 6.75C33.4 6.74 33.41 6.72 33.43 6.71C33.48 6.74 33.53 6.76 33.59 6.79C33.14 7.24 32.58 7.91 32.1 8.17C31.95 8.31 31.81 8.46 31.66 8.6C31.47 8.76 31.27 8.93 31.08 9.1C31.06 9.08 31.05 9.07 31.04 9.06C30.92 9.17 30.8 9.29 30.68 9.4C30.67 9.39 30.66 9.38 30.64 9.36C30.53 9.48 30.41 9.59 30.29 9.71C30.28 9.7 30.26 9.68 30.25 9.67C30.13 9.79 30.02 9.9 29.9 10.02C29.88 10 29.87 9.99 29.86 9.98C29.75 10.08 29.65 10.18 29.54 10.28C29.53 10.27 29.52 10.26 29.5 10.25C29.37 10.37 29.24 10.5 29.11 10.63C29.1 10.62 29.09 10.6 29.07 10.59C28.93 10.73 28.78 10.87 28.64 11.01C28.63 11 28.61 10.99 28.6 10.97C28.29 11.26 27.97 11.54 27.66 11.82C27.65 11.81 27.63 11.79 27.62 11.78C27.49 11.91 27.36 12.04 27.23 12.16C26.54 12.53 25.87 13.25 25.18 13.62C24.75 13.97 24.32 14.31 23.89 14.66C23.59 14.81 23.24 15.11 22.94 15.27C22.85 15.36 22.76 15.45 22.67 15.54C22.65 15.52 22.64 15.51 22.63 15.5C22.55 15.58 22.47 15.65 22.39 15.73C22.38 15.72 22.37 15.7 22.35 15.69C22.26 15.78 22.17 15.87 22.08 15.96C21.23 16.4 20.41 17.2 19.56 17.64C19.39 17.78 19.22 17.92 19.05 18.07C18.57 18.32 18.07 18.77 17.6 19.02C17.52 19.1 17.44 19.18 17.36 19.25C17.01 19.43 16.61 19.76 16.26 19.94C16.18 20.02 16.1 20.09 16.02 20.17C16.01 20.16 16 20.15 15.98 20.13C15.68 20.35 15.38 20.57 15.08 20.78C14.84 20.9 14.53 21.12 14.29 21.24C14.23 21.31 14.16 21.37 14.1 21.43C13.51 21.73 12.9 22.18 12.32 22.46C12.26 22.53 12.19 22.59 12.13 22.66C12.12 22.64 12.1 22.63 12.09 22.62C12.04 22.67 11.98 22.72 11.93 22.77C11.92 22.76 11.9 22.75 11.89 22.73C11.83 22.8 11.76 22.86 11.7 22.92C11.68 22.91 11.67 22.9 11.66 22.89C11.6 22.94 11.55 22.99 11.5 23.04C11.49 23.03 11.47 23.01 11.46 23C11.41 23.05 11.35 23.1 11.3 23.15C11.29 23.14 11.28 23.13 11.26 23.11C11.13 23.22 11 23.32 10.87 23.42C10.23 23.72 9.57 24.16 8.94 24.45C8.89 24.5 8.84 24.55 8.78 24.6C8.77 24.59 8.76 24.58 8.74 24.57C8.7 24.6 8.66 24.64 8.63 24.68C8.61 24.67 8.6 24.65 8.59 24.64C8.53 24.69 8.48 24.74 8.43 24.8C8.42 24.78 8.4 24.77 8.39 24.76C8.24 24.84 8.1 24.93 7.96 25.02C7.94 25.01 7.93 25 7.92 24.98C7.89 25.01 7.86 25.04 7.84 25.06C7.82 25.05 7.81 25.03 7.8 25.02C7.76 25.06 7.72 25.1 7.68 25.14C7.67 25.12 7.65 25.11 7.64 25.1C7.6 25.14 7.56 25.17 7.52 25.21C7.51 25.2 7.5 25.19 7.48 25.17C7.46 25.2 7.43 25.22 7.4 25.25C7.39 25.24 7.38 25.22 7.36 25.21C7.3 25.25 7.23 25.29 7.17 25.33C7.15 25.31 7.14 25.3 7.13 25.29C7.06 25.32 7 25.36 6.93 25.4C6.92 25.39 6.9 25.38 6.89 25.36C6.82 25.4 6.76 25.44 6.69 25.48C6.68 25.46 6.67 25.45 6.65 25.44C6.63 25.46 6.6 25.49 6.57 25.51C6.56 25.5 6.55 25.49 6.53 25.47C6.51 25.5 6.48 25.53 6.46 25.55C6.44 25.54 6.43 25.53 6.42 25.51C6.39 25.54 6.36 25.56 6.34 25.59C6.32 25.58 6.31 25.56 6.3 25.55C6.27 25.58 6.25 25.6 6.22 25.63C6.21 25.61 6.19 25.6 6.18 25.59C6.15 25.61 6.13 25.64 6.1 25.67C6.09 25.65 6.07 25.64 6.06 25.63C6.03 25.65 6.01 25.68 5.98 25.7C5.97 25.69 5.96 25.68 5.94 25.66C5.92 25.69 5.89 25.71 5.86 25.74C5.85 25.73 5.84 25.71 5.82 25.7C5.8 25.73 5.77 25.75 5.75 25.78C5.73 25.76 5.72 25.75 5.71 25.74C5.68 25.76 5.65 25.79 5.63 25.82L5.47 25.81C5.44 25.84 5.42 25.87 5.39 25.89C5.35 25.88 5.31 25.86 5.27 25.85C5.21 25.89 5.14 25.93 5.07 25.96C5.04 25.95 5 25.94 4.96 25.93C4.89 25.96 4.82 26 4.76 26.04C4.72 26.03 4.68 26.01 4.64 26C4.53 26.05 4.43 26.1 4.32 26.15C4.28 26.14 4.25 26.13 4.21 26.11C4.18 26.14 4.15 26.16 4.13 26.19C4.09 26.18 4.05 26.16 4.01 26.15C3.98 26.17 3.96 26.2 3.93 26.23C3.89 26.21 3.85 26.2 3.81 26.18C3.78 26.21 3.76 26.24 3.73 26.26C3.69 26.25 3.65 26.24 3.61 26.22C3.55 26.26 3.48 26.3 3.42 26.34C3.38 26.32 3.34 26.31 3.3 26.3C3.27 26.32 3.24 26.35 3.22 26.37C3.18 26.36 3.14 26.35 3.1 26.33C3.03 26.37 2.97 26.41 2.9 26.45C2.89 26.43 2.88 26.42 2.86 26.41C2.78 26.49 2.71 26.56 2.63 26.64C2.61 26.63 2.6 26.61 2.59 26.6C2.47 26.66 2.35 26.73 2.23 26.79C2.25 26.8 2.26 26.82 2.27 26.83C2.22 26.88 2.17 26.93 2.12 26.98C2.13 27.02 2.14 27.06 2.16 27.1C2.1 27.15 2.05 27.2 2 27.25C2.01 27.27 2.03 27.28 2.04 27.29C2.03 27.31 2.01 27.32 2 27.33C2.04 27.41 2.04 27.43 2.12 27.53C2.28 27.48 2.26 27.53 2.44 27.38C2.46 27.4 2.49 27.43 2.52 27.45C2.48 27.49 2.44 27.53 2.4 27.57C2.41 27.58 2.43 27.6 2.44 27.61C2.43 27.62 2.41 27.63 2.4 27.65C2.45 27.7 2.51 27.75 2.56 27.8C2.65 27.77 2.69 27.75 2.8 27.65C2.9 27.82 2.82 27.83 2.92 28C2.97 27.98 3.08 28 3.08 28C3.22 27.95 3.26 27.8 3.39 27.77C3.43 27.79 3.47 27.8 3.51 27.81C3.58 27.78 3.64 27.74 3.71 27.7C3.75 27.71 3.79 27.73 3.83 27.74C3.85 27.71 3.88 27.69 3.9 27.66C3.92 27.68 3.93 27.69 3.94 27.7C3.97 27.68 4 27.65 4.02 27.62C4.04 27.64 4.05 27.65 4.06 27.66C4.11 27.64 4.17 27.61 4.22 27.59C4.26 27.6 4.3 27.61 4.34 27.63C4.4 27.59 4.47 27.55 4.54 27.51C4.58 27.53 4.62 27.54 4.66 27.55C4.72 27.52 4.79 27.48 4.85 27.44C4.89 27.45 4.93 27.47 4.97 27.48C5.04 27.44 5.1 27.4 5.17 27.36C5.21 27.38 5.25 27.39 5.29 27.41C5.35 27.37 5.42 27.33 5.48 27.29C5.52 27.3 5.56 27.32 5.6 27.33C5.63 27.31 5.66 27.28 5.68 27.25L5.84 27.26C5.87 27.23 5.89 27.2 5.92 27.18C5.93 27.19 5.94 27.2 5.96 27.22C5.98 27.19 6.01 27.17 6.04 27.14C6.05 27.15 6.06 27.17 6.08 27.18C6.1 27.15 6.13 27.13 6.16 27.1C6.17 27.12 6.18 27.13 6.19 27.14C6.22 27.12 6.25 27.09 6.27 27.07C6.29 27.08 6.3 27.09 6.31 27.11C6.34 27.08 6.37 27.05 6.39 27.03L6.55 27.03C6.58 27 6.6 26.98 6.63 26.95C6.67 26.97 6.71 26.98 6.75 26.99C6.79 26.95 6.83 26.92 6.87 26.88C6.91 26.89 6.94 26.9 6.98 26.92C7.14 26.84 7.3 26.77 7.46 26.69C7.5 26.7 7.54 26.72 7.58 26.73C7.62 26.69 7.66 26.65 7.69 26.61C7.71 26.63 7.72 26.64 7.73 26.65C7.76 26.63 7.79 26.6 7.81 26.58C7.83 26.59 7.84 26.6 7.85 26.62C7.94 26.55 8.04 26.49 8.13 26.42C8.14 26.44 8.15 26.45 8.17 26.46C8.19 26.44 8.22 26.41 8.25 26.39C8.26 26.4 8.27 26.41 8.29 26.43C8.5 26.3 8.71 26.17 8.92 26.04C9.33 25.86 9.8 25.59 10.22 25.4C10.33 25.31 10.45 25.22 10.57 25.13C11.43 24.72 12.3 24.11 13.17 23.68C13.44 23.49 13.72 23.3 13.99 23.1C14.01 23.12 14.02 23.13 14.03 23.14C14.1 23.08 14.16 23.01 14.23 22.95C14.24 22.96 14.26 22.98 14.27 22.99C14.32 22.94 14.37 22.89 14.43 22.84C14.44 22.85 14.45 22.86 14.47 22.88C14.53 22.81 14.6 22.75 14.66 22.68C14.68 22.7 14.69 22.71 14.7 22.72C14.77 22.66 14.83 22.59 14.9 22.53C14.91 22.54 14.93 22.56 14.94 22.57C15 22.51 15.07 22.44 15.13 22.38C15.15 22.39 15.16 22.4 15.17 22.42C15.32 22.3 15.46 22.19 15.61 22.07C16.16 21.79 16.75 21.32 17.3 21.04C17.94 20.57 18.58 20.09 19.22 19.62C19.98 19.22 20.71 18.53 21.47 18.13C21.56 18.04 21.65 17.95 21.74 17.86C21.75 17.87 21.77 17.89 21.78 17.9C21.86 17.82 21.94 17.74 22.02 17.67C22.03 17.68 22.04 17.69 22.06 17.71C22.13 17.63 22.21 17.55 22.29 17.48C22.3 17.49 22.32 17.5 22.33 17.52C22.41 17.44 22.49 17.36 22.57 17.29C22.58 17.3 22.59 17.31 22.61 17.32C22.7 17.23 22.79 17.15 22.88 17.06C22.89 17.07 22.91 17.08 22.92 17.09C23.01 17 23.1 16.91 23.2 16.83C23.21 16.84 23.22 16.85 23.24 16.86C23.63 16.56 24.02 16.25 24.41 15.94C25.19 15.53 25.95 14.72 26.73 14.3C26.84 14.19 26.94 14.09 27.05 13.99C27.06 14 27.07 14.02 27.09 14.03C27.18 13.94 27.27 13.85 27.36 13.76C27.37 13.77 27.39 13.79 27.4 13.8C27.51 13.7 27.61 13.59 27.72 13.49C27.73 13.5 27.74 13.52 27.75 13.53C28.21 13.13 28.67 12.74 29.13 12.34C29.14 12.35 29.16 12.37 29.17 12.38C29.31 12.24 29.46 12.1 29.6 11.96C29.61 11.97 29.63 11.98 29.64 12C29.78 11.85 29.93 11.71 30.07 11.57C30.08 11.59 30.1 11.6 30.11 11.61C30.24 11.48 30.37 11.36 30.5 11.23C30.52 11.24 30.53 11.25 30.54 11.27C30.65 11.16 30.75 11.06 30.86 10.96C30.87 10.97 30.88 10.98 30.9 11C31.01 10.88 31.13 10.77 31.25 10.65C31.26 10.67 31.28 10.68 31.29 10.69C31.41 10.58 31.53 10.46 31.64 10.34C31.66 10.36 31.67 10.37 31.68 10.38C31.8 10.27 31.92 10.15 32.04 10.04C32.52 9.78 33.09 9.23 33.57 8.77C33.58 8.79 33.59 8.8 33.61 8.81C33.58 8.86 33.56 8.91 33.53 8.97C33.54 8.98 33.56 8.99 33.57 9C33.52 9.08 33.47 9.16 33.41 9.24C33.43 9.25 33.44 9.26 33.45 9.28C33.43 9.3 33.4 9.33 33.37 9.35C33.39 9.37 33.4 9.38 33.41 9.39C33.38 9.43 33.34 9.47 33.3 9.51C33.31 9.52 33.32 9.53 33.34 9.55C33.3 9.61 33.26 9.67 33.22 9.74C33.23 9.75 33.25 9.77 33.26 9.78C33.22 9.82 33.18 9.86 33.14 9.89C33.16 9.91 33.17 9.92 33.18 9.93C33.16 9.96 33.13 9.99 33.1 10.01C33.12 10.02 33.13 10.04 33.14 10.05C33.11 10.11 33.07 10.18 33.03 10.24C33.04 10.26 33.05 10.27 33.07 10.28C33.03 10.32 32.99 10.36 32.95 10.4C32.96 10.41 32.98 10.42 32.99 10.44C32.95 10.5 32.91 10.57 32.87 10.63C32.89 10.64 32.9 10.66 32.91 10.67C32.87 10.71 32.83 10.75 32.8 10.78C32.81 10.8 32.82 10.81 32.84 10.82C32.81 10.85 32.78 10.88 32.76 10.9C32.77 10.91 32.78 10.93 32.8 10.94C32.76 10.98 32.72 11.02 32.68 11.06C32.69 11.07 32.71 11.08 32.72 11.09C32.68 11.16 32.64 11.22 32.6 11.29C32.62 11.3 32.63 11.31 32.64 11.33C32.6 11.37 32.56 11.4 32.52 11.44C32.54 11.46 32.55 11.47 32.56 11.48C32.54 11.51 32.51 11.53 32.49 11.56C32.5 11.57 32.51 11.58 32.53 11.6C32.49 11.64 32.45 11.67 32.41 11.71C32.42 11.73 32.44 11.74 32.45 11.75C32.42 11.78 32.4 11.8 32.37 11.83C32.38 11.84 32.4 11.86 32.41 11.87C32.37 11.91 32.33 11.95 32.29 11.98C32.31 12 32.32 12.01 32.33 12.02C32.31 12.05 32.28 12.07 32.25 12.1C32.27 12.11 32.28 12.13 32.29 12.14C32.25 12.18 32.22 12.22 32.18 12.25C32.19 12.27 32.2 12.28 32.22 12.29C32.19 12.32 32.16 12.35 32.14 12.37C32.15 12.38 32.16 12.4 32.18 12.41C32.14 12.45 32.1 12.49 32.06 12.53C32.07 12.54 32.09 12.55 32.1 12.57C32.06 12.63 32.02 12.69 31.98 12.76C32 12.77 32.01 12.78 32.02 12.8C31.97 12.9 31.92 13 31.87 13.11C31.88 13.12 31.89 13.13 31.91 13.15C31.88 13.17 31.86 13.2 31.83 13.22C31.84 13.26 31.86 13.3 31.87 13.34C31.84 13.37 31.82 13.39 31.79 13.42C31.81 13.46 31.82 13.49 31.83 13.53C31.79 13.6 31.75 13.66 31.72 13.73C31.73 13.77 31.74 13.8 31.76 13.84C31.73 13.87 31.7 13.9 31.68 13.92C31.69 13.93 31.7 13.95 31.72 13.96C31.69 13.99 31.67 14.01 31.64 14.04C31.65 14.08 31.67 14.11 31.68 14.15C31.63 14.26 31.58 14.36 31.53 14.46C31.54 14.5 31.55 14.54 31.57 14.58C31.54 14.61 31.51 14.63 31.49 14.66C31.5 14.67 31.51 14.68 31.53 14.7C31.5 14.72 31.48 14.75 31.45 14.77C31.46 14.79 31.48 14.8 31.49 14.81C31.45 14.85 31.41 14.89 31.37 14.93C31.38 14.94 31.4 14.95 31.41 14.97C31.37 15.03 31.33 15.1 31.29 15.16C31.31 15.17 31.32 15.19 31.33 15.2C31.3 15.24 31.26 15.28 31.22 15.31C31.23 15.33 31.24 15.34 31.26 15.35C31.23 15.38 31.2 15.41 31.18 15.43C31.19 15.44 31.21 15.46 31.22 15.47C31.18 15.51 31.14 15.55 31.1 15.59C31.11 15.6 31.13 15.61 31.14 15.62C31.11 15.65 31.09 15.68 31.06 15.7C31.08 15.72 31.09 15.73 31.1 15.74C31.05 15.82 31 15.9 30.95 15.97C30.96 15.99 30.97 16 30.99 16.01C30.95 16.05 30.91 16.09 30.87 16.13C30.88 16.14 30.9 16.15 30.91 16.17C30.88 16.19 30.86 16.22 30.83 16.24C30.84 16.26 30.86 16.27 30.87 16.28C30.81 16.37 30.74 16.46 30.68 16.55C30.69 16.57 30.7 16.58 30.72 16.59C30.69 16.62 30.66 16.64 30.64 16.67C30.65 16.68 30.66 16.69 30.68 16.71C30.64 16.75 30.6 16.78 30.56 16.82C30.57 16.84 30.59 16.85 30.6 16.86C30.56 16.93 30.52 16.99 30.48 17.06C30.5 17.07 30.51 17.08 30.52 17.1C30.48 17.13 30.44 17.17 30.4 17.21C30.42 17.22 30.43 17.24 30.44 17.25C30.42 17.28 30.39 17.3 30.37 17.33C30.38 17.34 30.39 17.35 30.41 17.37C30.37 17.43 30.33 17.49 30.29 17.56C30.3 17.57 30.32 17.59 30.33 17.6C30.29 17.64 30.25 17.68 30.21 17.71C30.22 17.73 30.24 17.74 30.25 17.75C30.23 17.78 30.2 17.8 30.17 17.83C30.19 17.84 30.2 17.86 30.21 17.87C30.16 17.97 30.11 18.08 30.06 18.18C30.07 18.19 30.08 18.2 30.1 18.22C30.06 18.26 30.02 18.29 29.98 18.33C29.99 18.35 30.01 18.36 30.02 18.37C29.99 18.4 29.97 18.42 29.94 18.45C29.96 18.46 29.97 18.48 29.98 18.49C29.94 18.53 29.9 18.57 29.86 18.6C29.88 18.62 29.89 18.63 29.9 18.64C29.88 18.67 29.85 18.69 29.83 18.72C29.84 18.73 29.85 18.75 29.87 18.76C29.77 18.9 29.68 19.04 29.59 19.18C29.61 19.2 29.62 19.21 29.63 19.22C29.59 19.26 29.55 19.3 29.52 19.34C29.53 19.35 29.54 19.36 29.56 19.38C29.53 19.4 29.5 19.43 29.48 19.45C29.49 19.47 29.5 19.48 29.52 19.49C29.48 19.53 29.44 19.57 29.4 19.61C29.41 19.62 29.43 19.64 29.44 19.65C29.4 19.69 29.36 19.73 29.32 19.76C29.33 19.78 29.35 19.79 29.36 19.8C29.32 19.84 29.28 19.88 29.24 19.92C29.26 19.93 29.27 19.94 29.28 19.96C29.21 20.06 29.13 20.16 29.05 20.27C29.06 20.28 29.08 20.29 29.09 20.31C28.97 20.47 28.85 20.64 28.74 20.81C28.75 20.87 28.77 20.94 28.78 21C28.74 21.04 28.7 21.08 28.66 21.12C28.68 21.13 28.69 21.14 28.7 21.16C28.69 21.28 28.67 21.25 28.78 21.39C28.88 21.35 28.94 21.31 29.06 21.2C29.14 21.04 29.21 20.89 29.29 20.74C29.32 20.76 29.34 20.79 29.37 20.81C29.27 21.02 29.16 21.23 29.06 21.43C29.11 21.48 29.17 21.54 29.22 21.59C29.3 21.58 29.22 21.58 29.3 21.59C29.37 21.5 29.43 21.41 29.5 21.32C29.51 21.33 29.52 21.35 29.54 21.36C29.61 21.35 29.54 21.35 29.61 21.36C29.53 21.54 29.43 21.64 29.54 21.83C29.61 21.82 29.66 21.84 29.74 21.87C30.02 21.35 30.31 20.84 30.59 20.32C30.58 20.31 30.57 20.3 30.55 20.28C30.58 20.26 30.61 20.23 30.63 20.21C30.62 20.19 30.61 20.18 30.59 20.17C30.68 20.02 30.77 19.88 30.87 19.74C30.85 19.73 30.84 19.71 30.83 19.7C30.85 19.68 30.88 19.65 30.9 19.63C30.89 19.61 30.88 19.6 30.86 19.59C30.9 19.55 30.94 19.51 30.98 19.47C30.97 19.46 30.95 19.44 30.94 19.43C30.97 19.41 30.99 19.38 31.02 19.35C31.01 19.34 30.99 19.33 30.98 19.31C31.02 19.28 31.06 19.24 31.1 19.2C31.08 19.19 31.07 19.17 31.06 19.16C31.1 19.1 31.14 19.03 31.17 18.97C31.16 18.95 31.15 18.94 31.13 18.93C31.17 18.89 31.21 18.85 31.25 18.81C31.24 18.8 31.23 18.79 31.21 18.77C31.24 18.75 31.26 18.72 31.29 18.7C31.28 18.68 31.26 18.67 31.25 18.66C31.3 18.55 31.35 18.45 31.41 18.35C31.39 18.33 31.38 18.32 31.37 18.31C31.4 18.27 31.44 18.23 31.48 18.19C31.47 18.18 31.46 18.17 31.44 18.15C31.48 18.09 31.52 18.02 31.56 17.96C31.55 17.95 31.53 17.93 31.52 17.92C31.56 17.88 31.6 17.84 31.64 17.81C31.62 17.79 31.61 17.78 31.6 17.77C31.62 17.74 31.65 17.72 31.68 17.69C31.66 17.68 31.65 17.66 31.64 17.65C31.7 17.56 31.77 17.47 31.83 17.38C31.82 17.37 31.8 17.35 31.79 17.34C31.82 17.32 31.84 17.29 31.87 17.26C31.86 17.25 31.84 17.24 31.83 17.23C31.87 17.19 31.91 17.15 31.95 17.11C31.93 17.1 31.92 17.08 31.91 17.07C31.93 17.05 31.96 17.02 31.99 16.99C31.97 16.98 31.96 16.97 31.95 16.95C31.99 16.92 32.02 16.88 32.06 16.84C32.05 16.83 32.04 16.81 32.02 16.8C32.06 16.73 32.1 16.67 32.14 16.61C32.13 16.59 32.11 16.58 32.1 16.57C32.14 16.53 32.18 16.49 32.22 16.45C32.2 16.44 32.19 16.43 32.18 16.41C32.2 16.39 32.23 16.36 32.26 16.34C32.24 16.32 32.23 16.31 32.22 16.3C32.26 16.26 32.29 16.22 32.33 16.18C32.32 16.17 32.31 16.15 32.29 16.14C32.33 16.08 32.37 16.01 32.41 15.95C32.4 15.94 32.38 15.92 32.37 15.91C32.41 15.87 32.45 15.83 32.49 15.79C32.48 15.78 32.46 15.77 32.45 15.75C32.47 15.73 32.5 15.7 32.53 15.68C32.51 15.66 32.5 15.65 32.49 15.64C32.53 15.57 32.57 15.51 32.6 15.45C32.59 15.43 32.58 15.42 32.56 15.41C32.59 15.38 32.62 15.36 32.64 15.33C32.63 15.32 32.62 15.3 32.6 15.29C32.63 15.26 32.65 15.24 32.68 15.21C32.67 15.2 32.65 15.19 32.64 15.17C32.67 15.15 32.69 15.12 32.72 15.1C32.71 15.08 32.69 15.07 32.68 15.06C32.71 15.03 32.73 15.01 32.76 14.98C32.74 14.97 32.73 14.95 32.72 14.94C32.74 14.92 32.77 14.89 32.8 14.86C32.78 14.85 32.77 14.84 32.76 14.83C32.78 14.8 32.81 14.77 32.83 14.75C32.82 14.74 32.81 14.72 32.79 14.71C32.82 14.68 32.85 14.66 32.87 14.63C32.86 14.62 32.85 14.61 32.83 14.59C32.86 14.57 32.89 14.54 32.91 14.52C32.9 14.5 32.88 14.49 32.87 14.48C32.9 14.45 32.92 14.43 32.95 14.4L32.95 14.24C32.97 14.22 33 14.19 33.03 14.17C33.01 14.13 33 14.09 32.99 14.05C33.02 13.99 33.06 13.92 33.1 13.86C33.09 13.82 33.08 13.78 33.06 13.74C33.09 13.69 33.11 13.64 33.14 13.59C33.13 13.57 33.11 13.56 33.1 13.55C33.14 13.48 33.18 13.42 33.22 13.35C33.2 13.34 33.19 13.33 33.18 13.31C33.22 13.25 33.25 13.19 33.29 13.12C33.28 13.11 33.27 13.09 33.25 13.08C33.29 13.04 33.33 13 33.37 12.97C33.36 12.95 33.34 12.94 33.33 12.93C33.37 12.86 33.41 12.8 33.45 12.73C33.43 12.72 33.42 12.71 33.41 12.69C33.45 12.66 33.49 12.62 33.53 12.58C33.51 12.57 33.5 12.55 33.49 12.54C33.51 12.51 33.54 12.49 33.56 12.46C33.55 12.45 33.54 12.44 33.52 12.42C33.56 12.39 33.6 12.35 33.64 12.31C33.63 12.3 33.62 12.28 33.6 12.27C33.64 12.21 33.68 12.14 33.72 12.08C33.71 12.06 33.69 12.05 33.68 12.04C33.73 11.96 33.78 11.88 33.83 11.81C33.82 11.79 33.81 11.78 33.79 11.77C33.83 11.73 33.87 11.69 33.91 11.65C33.9 11.64 33.89 11.62 33.87 11.61C33.91 11.55 33.95 11.48 33.99 11.42C33.98 11.41 33.96 11.39 33.95 11.38C33.99 11.34 34.03 11.3 34.07 11.26C34.05 11.25 34.04 11.24 34.03 11.22C34.07 11.16 34.1 11.1 34.14 11.03C34.13 11.02 34.12 11.01 34.1 10.99C34.14 10.95 34.18 10.92 34.22 10.88C34.21 10.86 34.19 10.85 34.18 10.84C34.21 10.81 34.23 10.79 34.26 10.76C34.25 10.75 34.23 10.73 34.22 10.72C34.26 10.66 34.3 10.59 34.34 10.53C34.32 10.52 34.31 10.5 34.3 10.49C34.34 10.45 34.38 10.41 34.41 10.37C34.4 10.36 34.39 10.35 34.37 10.33C34.4 10.31 34.43 10.28 34.45 10.26C34.44 10.24 34.43 10.23 34.41 10.22C34.45 10.18 34.49 10.14 34.53 10.1C34.52 10.09 34.5 10.08 34.49 10.06C34.53 10 34.57 9.93 34.61 9.87C34.59 9.86 34.58 9.84 34.57 9.83C34.61 9.79 34.65 9.75 34.68 9.72C34.67 9.7 34.66 9.69 34.64 9.68C34.67 9.65 34.7 9.63 34.72 9.6C34.71 9.59 34.7 9.57 34.68 9.56C34.72 9.52 34.76 9.48 34.8 9.45C34.79 9.43 34.77 9.42 34.76 9.41C34.81 9.33 34.86 9.25 34.92 9.17C34.9 9.16 34.89 9.15 34.88 9.13C34.92 9.07 34.95 9.01 34.99 8.94C34.98 8.93 34.97 8.92 34.95 8.9C34.99 8.86 35.03 8.83 35.07 8.79C35.06 8.77 35.04 8.76 35.03 8.75C35.06 8.72 35.08 8.7 35.11 8.67C35.1 8.66 35.08 8.64 35.07 8.63C35.11 8.57 35.15 8.5 35.19 8.44C35.17 8.43 35.16 8.41 35.15 8.4C35.19 8.36 35.23 8.32 35.26 8.28C35.25 8.27 35.24 8.26 35.22 8.24C35.25 8.22 35.28 8.19 35.3 8.17C35.29 8.15 35.28 8.14 35.26 8.13C35.31 8.03 35.37 7.92 35.42 7.82C35.4 7.81 35.39 7.79 35.38 7.78C35.42 7.74 35.46 7.7 35.5 7.66C35.48 7.65 35.47 7.64 35.46 7.63C35.51 7.52 35.56 7.42 35.61 7.32C35.6 7.3 35.58 7.29 35.57 7.28C35.61 7.21 35.65 7.15 35.69 7.08C35.67 7.04 35.66 7.01 35.65 6.97C35.69 6.93 35.73 6.89 35.76 6.85C35.75 6.81 35.74 6.77 35.72 6.73C35.79 6.62 35.85 6.5 35.92 6.39C35.9 6.35 35.89 6.31 35.88 6.27C35.9 6.24 35.93 6.22 35.96 6.19C35.94 6.15 35.93 6.11 35.92 6.08C35.94 6.02 35.97 5.97 35.99 5.92C36 5.87 35.94 5.81 35.95 5.73C35.85 5.67 35.92 5.69 35.83 5.69C35.82 5.67 35.81 5.66 35.79 5.65C35.7 5.74 35.61 5.83 35.52 5.92ZM32.73 8.49C32.72 8.48 32.71 8.46 32.69 8.45C32.64 8.5 32.59 8.55 32.54 8.61C32.52 8.59 32.51 8.58 32.5 8.57C32.9 8.17 33.31 7.77 33.71 7.37C33.9 7.19 34.12 6.96 34.3 6.95C33.78 7.47 33.26 7.98 32.73 8.49ZM29.32 11.21C29.3 11.2 29.29 11.19 29.28 11.18C29.33 11.12 29.38 11.07 29.43 11.02C29.45 11.03 29.46 11.05 29.47 11.06C29.42 11.11 29.37 11.16 29.32 11.21ZM28.84 11.6C28.85 11.56 28.82 11.48 28.92 11.44C28.94 11.46 28.95 11.47 28.96 11.48C28.92 11.52 28.88 11.56 28.84 11.6ZM26.88 13.13C26.88 13.1 26.85 13.01 26.96 12.98C26.97 12.99 26.98 13 27 13.02C26.96 13.06 26.92 13.09 26.88 13.13ZM26.53 13.4C26.51 13.39 26.5 13.37 26.49 13.36C26.54 13.31 26.59 13.26 26.64 13.21C26.66 13.22 26.67 13.23 26.68 13.25C26.63 13.3 26.58 13.35 26.53 13.4ZM26.21 13.63C26.21 13.6 26.19 13.51 26.29 13.48C26.3 13.49 26.32 13.5 26.33 13.52C26.29 13.55 26.25 13.59 26.21 13.63ZM25.86 13.9C25.86 13.86 25.83 13.78 25.94 13.74C25.95 13.76 25.96 13.77 25.98 13.78C25.94 13.82 25.9 13.86 25.86 13.9ZM25.5 14.17C25.49 14.15 25.48 14.14 25.46 14.13C25.52 14.08 25.57 14.03 25.62 13.97C25.63 13.99 25.65 14 25.66 14.01C25.61 14.07 25.56 14.12 25.5 14.17Z" />
			</g>
		</g>
	</g>
</svg>